<?xml version="1.0" encoding="UTF-8"?>
<svg xmlns="http://www.w3.org/2000/svg" version="1.1" viewBox="0 0 512 512">
  <!-- Generator: Adobe Illustrator 29.3.1, SVG Export Plug-In . SVG Version: 2.1.0 Build 151)  -->
  <defs>
    <style>
      .st0 {
        fill: #f9f9f9;
      }
    </style>
  </defs>
  <g id="Layer_1" image-rendering="optimizeQuality" shape-rendering="geometricPrecision" text-rendering="geometricPrecision">
    <path class="st0" d="M170.7,256.2c0-47.1,38.1-85.4,85.2-85.5,47.1,0,85.4,38,85.5,85.2,0,47.1-38,85.4-85.2,85.5-47.1,0-85.4-38-85.5-85.2ZM124.6,256.2c.1,72.6,59.1,131.3,131.7,131.2,72.6-.1,131.4-59.1,131.2-131.7-.1-72.6-59.1-131.3-131.7-131.2-72.6.1-131.3,59.1-131.2,131.7h0ZM361.7,119.2c0,17,13.8,30.7,30.8,30.6,17,0,30.7-13.8,30.7-30.8,0-17-13.8-30.7-30.8-30.7-17,0-30.7,13.8-30.7,30.8ZM153,464.6c-25-1.1-38.5-5.2-47.5-8.7-12-4.6-20.5-10.2-29.5-19.1-9-9-14.5-17.5-19.2-29.4-3.5-9-7.7-22.6-8.9-47.5-1.3-27-1.6-35.1-1.7-103.4-.1-68.3.1-76.4,1.3-103.4,1.1-24.9,5.2-38.5,8.7-47.5,4.6-12,10.2-20.5,19.1-29.5,8.9-9,17.5-14.5,29.4-19.2,9-3.5,22.6-7.7,47.5-8.9,27-1.3,35.1-1.6,103.4-1.7,68.4-.1,76.4.1,103.5,1.3,24.9,1.1,38.5,5.2,47.5,8.7,12,4.6,20.5,10.1,29.5,19.1,9,8.9,14.5,17.4,19.2,29.4,3.5,9,7.7,22.6,8.9,47.5,1.3,27,1.6,35.1,1.7,103.4.1,68.4-.1,76.5-1.3,103.4-1.1,25-5.2,38.5-8.7,47.6-4.6,12-10.2,20.5-19.1,29.5-8.9,8.9-17.5,14.5-29.4,19.2-9,3.5-22.6,7.7-47.5,8.9-27,1.3-35.1,1.6-103.4,1.7-68.3.1-76.4-.1-103.4-1.3h0ZM150,1.8c-27.2,1.3-45.8,5.6-62.1,12-16.8,6.6-31.1,15.4-45.3,29.6-14.2,14.3-22.9,28.5-29.4,45.4-6.3,16.3-10.6,34.9-11.8,62.2C.2,178.3-.1,187,0,256.5c.1,69.5.4,78.2,1.7,105.5,1.3,27.2,5.6,45.8,12,62.1,6.6,16.8,15.4,31.1,29.6,45.3,14.2,14.2,28.5,22.9,45.4,29.4,16.3,6.3,34.9,10.6,62.1,11.8,27.3,1.2,36,1.5,105.5,1.3,69.5-.1,78.2-.4,105.6-1.7,27.2-1.3,45.8-5.7,62.1-12,16.8-6.6,31.1-15.4,45.3-29.6,14.2-14.3,22.9-28.5,29.4-45.4,6.3-16.3,10.6-34.9,11.8-62.1,1.2-27.3,1.5-36,1.3-105.6-.1-69.5-.4-78.2-1.7-105.5-1.3-27.3-5.7-45.8-12-62.1-6.6-16.8-15.4-31.1-29.6-45.3-14.2-14.2-28.5-22.9-45.4-29.4-16.3-6.3-34.9-10.6-62.1-11.8C333.7.2,325-.1,255.5,0c-69.5.1-78.2.4-105.5,1.7h0Z"/>
  </g>
</svg>