<?xml version="1.0" encoding="UTF-8"?>
<svg id="Layer_1" xmlns="http://www.w3.org/2000/svg" version="1.1" viewBox="0 0 512 509.6">
  <!-- Generator: Adobe Illustrator 29.3.1, SVG Export Plug-In . SVG Version: 2.1.0 Build 151)  -->
  <defs>
    <style>
      .st0 {
        fill: #f9f9f9;
      }
    </style>
  </defs>
  <path class="st0" d="M396.4,0H115.6C51.8,0,0,51.8,0,115.6v278.4c0,63.8,51.8,115.6,115.6,115.6h280.8c63.8,0,115.6-51.8,115.6-115.6V115.6C512,51.8,460.2,0,396.4,0ZM131.6,97.3c19.4,0,35.1,15.7,35.1,35.1s-15.7,35.1-35.1,35.1-35.1-15.7-35.1-35.1,15.7-35.1,35.1-35.1ZM166.8,412.2h-70.2v-214.7h0s70.2,0,70.2,0v214.7ZM415.4,412.2h-67.5v-104.1c0-23.8-.5-54.4-35.1-54.4s-40.5,25.9-40.5,52.7v105.9h-67.4v-214.7h0c0-.1,64.7-.1,64.7-.1v33.2h.9c9-16.2,31-33.2,63.9-33.2,68.3,0,80.9,42.5,80.9,97.8v116.9Z"/>
</svg>